<?xml version="1.0" encoding="UTF-8" standalone="no"?>
<!-- Created with Inkscape (http://www.inkscape.org/) -->

<svg
   xmlns:dc="http://purl.org/dc/elements/1.1/"
   xmlns:cc="http://creativecommons.org/ns#"
   xmlns:rdf="http://www.w3.org/1999/02/22-rdf-syntax-ns#"
   xmlns:svg="http://www.w3.org/2000/svg"
   xmlns="http://www.w3.org/2000/svg"
   xmlns:sodipodi="http://sodipodi.sourceforge.net/DTD/sodipodi-0.dtd"
   xmlns:inkscape="http://www.inkscape.org/namespaces/inkscape"
   id="svg2"
   version="1.1"
   inkscape:version="0.48.4 r9939"
   width="205.14999"
   height="178.14999"
   xml:space="preserve"
   sodipodi:docname="comparatore.pdf"><metadata
     id="metadata8"><rdf:RDF><cc:Work
         rdf:about=""><dc:format>image/svg+xml</dc:format><dc:type
           rdf:resource="http://purl.org/dc/dcmitype/StillImage" /><dc:title></dc:title></cc:Work></rdf:RDF></metadata><defs
     id="defs6" /><sodipodi:namedview
     pagecolor="#ffffff"
     bordercolor="#666666"
     borderopacity="1"
     objecttolerance="10"
     gridtolerance="10"
     guidetolerance="10"
     inkscape:pageopacity="0"
     inkscape:pageshadow="2"
     inkscape:window-width="1280"
     inkscape:window-height="973"
     id="namedview4"
     showgrid="true"
     fit-margin-top="20"
     fit-margin-left="20"
     fit-margin-right="20"
     fit-margin-bottom="20"
     inkscape:zoom="2.4722548"
     inkscape:cx="141.49586"
     inkscape:cy="148.96493"
     inkscape:window-x="0"
     inkscape:window-y="25"
     inkscape:window-maximized="1"
     inkscape:current-layer="g10"><inkscape:grid
       type="xygrid"
       id="grid3113"
       empspacing="5"
       visible="true"
       enabled="true"
       snapvisiblegridlinesonly="true"
       originx="20px"
       originy="20.45px" /></sodipodi:namedview><g
     id="g10"
     inkscape:groupmode="layer"
     inkscape:label="ink_ext_XXXXXX"
     transform="matrix(1.25,0,0,-1.25,20,157.7)"><path
       inkscape:connector-curvature="0"
       id="path14"
       style="fill:none;stroke:#000000;stroke-width:0.71999997;stroke-linecap:square;stroke-linejoin:miter;stroke-miterlimit:10;stroke-opacity:1;stroke-dasharray:none"
       d="m 36.3602,14.4 0,57.6" /><path
       inkscape:connector-curvature="0"
       id="path16"
       style="fill:none;stroke:#000000;stroke-width:0.71999997;stroke-linecap:square;stroke-linejoin:miter;stroke-miterlimit:10;stroke-opacity:1;stroke-dasharray:none"
       d="M 79.5602,43.2 36.3602,72" /><path
       inkscape:connector-curvature="0"
       id="path18"
       style="fill:none;stroke:#000000;stroke-width:0.71999997;stroke-linecap:square;stroke-linejoin:miter;stroke-miterlimit:10;stroke-opacity:1;stroke-dasharray:none"
       d="m 36.3602,14.4 43.2,28.8" /><path
       inkscape:connector-curvature="0"
       id="path20"
       style="fill:none;stroke:#000000;stroke-width:0.71999997;stroke-linecap:square;stroke-linejoin:miter;stroke-miterlimit:10;stroke-opacity:1;stroke-dasharray:none"
       d="m 43.5602,54 0,7.2" /><path
       inkscape:connector-curvature="0"
       id="path22"
       style="fill:none;stroke:#000000;stroke-width:0.71999997;stroke-linecap:square;stroke-linejoin:miter;stroke-miterlimit:10;stroke-opacity:1;stroke-dasharray:none"
       d="m 47.1602,57.6 -7.2,0" /><path
       inkscape:connector-curvature="0"
       id="path24"
       style="fill:none;stroke:#000000;stroke-width:0.71999997;stroke-linecap:square;stroke-linejoin:miter;stroke-miterlimit:10;stroke-opacity:1;stroke-dasharray:none"
       d="m 47.1602,28.8 -7.2,0" /><path
       inkscape:connector-curvature="0"
       id="path26"
       style="fill:none;stroke:#000000;stroke-width:0.71999997;stroke-linecap:square;stroke-linejoin:miter;stroke-miterlimit:10;stroke-opacity:1;stroke-dasharray:none"
       d="m 36.3602,57.6 -14.4,0" /><path
       inkscape:connector-curvature="0"
       id="path28"
       style="fill:none;stroke:#000000;stroke-width:0.71999997;stroke-linecap:square;stroke-linejoin:miter;stroke-miterlimit:10;stroke-opacity:1;stroke-dasharray:none"
       d="m 36.3602,28.8 -14.4,0" /><path
       inkscape:connector-curvature="0"
       id="path30"
       style="fill:none;stroke:#000000;stroke-width:0.71999997;stroke-linecap:square;stroke-linejoin:miter;stroke-miterlimit:10;stroke-opacity:1;stroke-dasharray:none"
       d="m 93.9602,43.2 -14.4,0" /><path
       inkscape:connector-curvature="0"
       id="path32"
       style="fill:none;stroke:#000000;stroke-width:0.71999997;stroke-linecap:square;stroke-linejoin:miter;stroke-miterlimit:10;stroke-opacity:1;stroke-dasharray:none"
       d="m 57.9602,72 0,-14.4" /><path
       inkscape:connector-curvature="0"
       id="path34"
       style="fill:none;stroke:#000000;stroke-width:0.71999997;stroke-linecap:square;stroke-linejoin:miter;stroke-miterlimit:10;stroke-opacity:1;stroke-dasharray:none"
       d="m 57.9602,14.4 0,14.4" /><g
       id="g36"
       transform="translate(42.4398,51.200005)"><text
         id="text38"
         transform="matrix(1,0,0,-1,61.5602,64.8)"><tspan
           id="tspan42"
           sodipodi:role="line"
           y="0"
           x="0"
           style="font-size:10.39999962px;font-variant:normal;font-weight:normal;writing-mode:lr-tb;fill:#000000;fill-opacity:1;fill-rule:nonzero;stroke:none;font-family:Helvetica;-inkscape-font-specification:Helvetica">+ 15 V</tspan></text>
</g><path
       inkscape:connector-curvature="0"
       id="path44"
       style="fill:#000000;fill-opacity:1;fill-rule:nonzero;stroke:none"
       d="m 55.8,12.2398 4.31992,0 0,4.31992 -4.31992,0 0,-4.31992 z" /><path
       inkscape:connector-curvature="0"
       id="path46"
       style="fill:none;stroke:#000000;stroke-width:0.71999997;stroke-linecap:square;stroke-linejoin:miter;stroke-miterlimit:10;stroke-opacity:1;stroke-dasharray:none"
       d="m 29.1602,14.4 -14.4,0" /><path
       inkscape:connector-curvature="0"
       id="path48"
       style="fill:none;stroke:#000000;stroke-width:0.71999997;stroke-linecap:square;stroke-linejoin:miter;stroke-miterlimit:10;stroke-opacity:1;stroke-dasharray:none"
       d="m 29.1602,15.8398 0,-1.4398" /><path
       inkscape:connector-curvature="0"
       id="path50"
       style="fill:none;stroke:#000000;stroke-width:0.71999997;stroke-linecap:square;stroke-linejoin:miter;stroke-miterlimit:10;stroke-opacity:1;stroke-dasharray:none"
       d="m 14.7602,15.8398 14.4,0" /><path
       inkscape:connector-curvature="0"
       id="path52"
       style="fill:none;stroke:#000000;stroke-width:0.71999997;stroke-linecap:square;stroke-linejoin:miter;stroke-miterlimit:10;stroke-opacity:1;stroke-dasharray:none"
       d="m 14.7602,14.4 0,1.4398" /><path
       inkscape:connector-curvature="0"
       id="path54"
       style="fill:none;stroke:#000000;stroke-width:0.71999997;stroke-linecap:square;stroke-linejoin:miter;stroke-miterlimit:10;stroke-opacity:1;stroke-dasharray:none"
       d="m 21.9602,15.8398 0,12.9602" /><path
       inkscape:connector-curvature="0"
       id="path56"
       style="fill:none;stroke:#000000;stroke-width:0.71999997;stroke-linecap:square;stroke-linejoin:miter;stroke-miterlimit:10;stroke-opacity:1;stroke-dasharray:none"
       d="m 79.361895,23.567797 -14.4,0" /><path
       inkscape:connector-curvature="0"
       id="path58"
       style="fill:none;stroke:#000000;stroke-width:0.71999997;stroke-linecap:square;stroke-linejoin:miter;stroke-miterlimit:10;stroke-opacity:1;stroke-dasharray:none"
       d="m 79.361895,25.007637 0,-1.43984" /><path
       inkscape:connector-curvature="0"
       id="path60"
       style="fill:none;stroke:#000000;stroke-width:0.71999997;stroke-linecap:square;stroke-linejoin:miter;stroke-miterlimit:10;stroke-opacity:1;stroke-dasharray:none"
       d="m 64.961895,25.007637 14.4,0" /><path
       inkscape:connector-curvature="0"
       id="path62"
       style="fill:none;stroke:#000000;stroke-width:0.71999997;stroke-linecap:square;stroke-linejoin:miter;stroke-miterlimit:10;stroke-opacity:1;stroke-dasharray:none"
       d="m 64.961895,23.567797 0,1.43984" /><path
       inkscape:connector-curvature="0"
       id="path64"
       style="fill:none;stroke:#000000;stroke-width:0.71999997;stroke-linecap:square;stroke-linejoin:miter;stroke-miterlimit:10;stroke-opacity:1;stroke-dasharray:none"
       d="m 72.161895,25.007637 0,12.960159" /><path
       inkscape:connector-curvature="0"
       id="path68"
       style="fill:none;stroke:#000000;stroke-width:0.71999997;stroke-linecap:square;stroke-linejoin:miter;stroke-miterlimit:10;stroke-opacity:1;stroke-dasharray:none"
       d="m 129.96,108 -93.5998,0" /><path
       inkscape:connector-curvature="0"
       id="path70"
       style="fill:none;stroke:#000000;stroke-width:0.71999997;stroke-linecap:square;stroke-linejoin:miter;stroke-miterlimit:10;stroke-opacity:1;stroke-dasharray:none"
       d="m 129.96,43.2 -35.9998,0" /><path
       inkscape:connector-curvature="0"
       id="path72"
       style="fill:none;stroke:#000000;stroke-width:0.71999997;stroke-linecap:square;stroke-linejoin:miter;stroke-miterlimit:10;stroke-opacity:1;stroke-dasharray:none"
       d="m 57.9602,108 0,-36" /><path
       inkscape:connector-curvature="0"
       id="path74"
       style="fill:none;stroke:#000000;stroke-width:0.72000003;stroke-linecap:square;stroke-linejoin:miter;stroke-miterlimit:10;stroke-opacity:1;stroke-dasharray:none"
       d="M 106.52159,79.770162 96.225339,84.983496" /><path
       inkscape:connector-curvature="0"
       id="path76"
       style="fill:none;stroke:#000000;stroke-width:0.72000003;stroke-linecap:square;stroke-linejoin:miter;stroke-miterlimit:10;stroke-opacity:1;stroke-dasharray:none"
       d="m 96.225339,74.556829 10.296251,5.213333" /><path
       inkscape:connector-curvature="0"
       id="path78"
       style="fill:none;stroke:#000000;stroke-width:0.72000003;stroke-linecap:square;stroke-linejoin:miter;stroke-miterlimit:10;stroke-opacity:1;stroke-dasharray:none"
       d="M 106.52159,69.343496 96.225339,74.556829" /><path
       inkscape:connector-curvature="0"
       id="path80"
       style="fill:none;stroke:#000000;stroke-width:0.72000003;stroke-linecap:square;stroke-linejoin:miter;stroke-miterlimit:10;stroke-opacity:1;stroke-dasharray:none"
       d="m 96.225339,64.130162 10.296251,5.213334" /><path
       inkscape:connector-curvature="0"
       id="path82"
       style="fill:none;stroke:#000000;stroke-width:0.72000003;stroke-linecap:square;stroke-linejoin:miter;stroke-miterlimit:10;stroke-opacity:1;stroke-dasharray:none"
       d="M 106.52159,90.196829 96.225339,84.983496" /><path
       inkscape:connector-curvature="0"
       id="path84"
       style="fill:none;stroke:#000000;stroke-width:0.72000003;stroke-linecap:square;stroke-linejoin:miter;stroke-miterlimit:10;stroke-opacity:1;stroke-dasharray:none"
       d="m 101.37339,92.803496 5.1482,-2.606667" /><path
       inkscape:connector-curvature="0"
       id="path86"
       style="fill:none;stroke:#000000;stroke-width:0.71999997;stroke-linecap:square;stroke-linejoin:miter;stroke-miterlimit:10;stroke-opacity:1;stroke-dasharray:none"
       d="m 101.16,93.203138 0,14.667922" /><path
       inkscape:connector-curvature="0"
       id="path88"
       style="fill:none;stroke:#000000;stroke-width:0.72000003;stroke-linecap:square;stroke-linejoin:miter;stroke-miterlimit:10;stroke-opacity:1;stroke-dasharray:none"
       d="m 101.16,61.356684 0,-17.926971" /><path
       inkscape:connector-curvature="0"
       id="path90"
       style="fill:none;stroke:#000000;stroke-width:0.72000003;stroke-linecap:square;stroke-linejoin:miter;stroke-miterlimit:10;stroke-opacity:1;stroke-dasharray:none"
       d="m 101.37339,61.523496 -5.148051,2.658727" /><path
       inkscape:connector-curvature="0"
       id="path92"
       style="fill:#000000;fill-opacity:1;fill-rule:nonzero;stroke:none"
       d="m 102.96,108 c 0,0.994 -0.806,1.8 -1.8,1.8 -0.994,0 -1.7998,-0.806 -1.7998,-1.8 0,-0.994 0.8058,-1.8 1.7998,-1.8 0.994,0 1.8,0.806 1.8,1.8" /><path
       inkscape:connector-curvature="0"
       id="path94"
       style="fill:#000000;fill-opacity:1;fill-rule:nonzero;stroke:none"
       d="m 102.96,108 c 0,0.994 -0.806,1.8 -1.8,1.8 -0.994,0 -1.7998,-0.806 -1.7998,-1.8 0,-0.994 0.8058,-1.8 1.7998,-1.8 0.994,0 1.8,0.806 1.8,1.8" /><path
       inkscape:connector-curvature="0"
       id="path96"
       style="fill:#000000;fill-opacity:1;fill-rule:nonzero;stroke:none"
       d="m 102.96,43.2 c 0,0.9938 -0.806,1.8 -1.8,1.8 -0.994,0 -1.7998,-0.8062 -1.7998,-1.8 0,-0.9937 0.8058,-1.8 1.7998,-1.8 0.994,0 1.8,0.8063 1.8,1.8" /><path
       inkscape:connector-curvature="0"
       id="path98"
       style="fill:#000000;fill-opacity:1;fill-rule:nonzero;stroke:none"
       d="m 102.96,43.2 c 0,0.9938 -0.806,1.8 -1.8,1.8 -0.994,0 -1.7998,-0.8062 -1.7998,-1.8 0,-0.9937 0.8058,-1.8 1.7998,-1.8 0.994,0 1.8,0.8063 1.8,1.8" /><g
       id="g100"
       transform="translate(-0.3661011,-13.012885)"><text
         id="text102"
         transform="matrix(1,0,0,-1,113.346,76.775)"><tspan
           id="tspan104"
           sodipodi:role="line"
           y="0"
           x="0"
           style="font-size:13px;font-variant:normal;font-weight:normal;writing-mode:lr-tb;fill:#000000;fill-opacity:1;fill-rule:nonzero;stroke:none;font-family:Helvetica;-inkscape-font-specification:Helvetica">\SI{10}{\kilo\ohm}</tspan></text>
</g><path
       inkscape:connector-curvature="0"
       id="path106"
       style="fill:none;stroke:#000000;stroke-width:0.71999997;stroke-linecap:square;stroke-linejoin:miter;stroke-miterlimit:10;stroke-opacity:1;stroke-dasharray:none"
       d="m 0.360156,57.6 21.600044,0" /><path
       inkscape:connector-curvature="0"
       id="path108"
       style="fill:#000000;fill-opacity:1;fill-rule:nonzero;stroke:none"
       d="m 55.8,12.2398 4.31992,0 0,4.31992 -4.31992,0 0,-4.31992 z" /><path
       inkscape:connector-curvature="0"
       id="path116"
       style="fill:#000000;fill-opacity:1;fill-rule:nonzero;stroke:none"
       d="m 102.96,108 c 0,0.994 -0.806,1.8 -1.8,1.8 -0.994,0 -1.7998,-0.806 -1.7998,-1.8 0,-0.994 0.8058,-1.8 1.7998,-1.8 0.994,0 1.8,0.806 1.8,1.8" /><path
       inkscape:connector-curvature="0"
       id="path118"
       style="fill:#000000;fill-opacity:1;fill-rule:nonzero;stroke:none"
       d="m 59.7602,108 c 0,0.994 -0.8063,1.8 -1.8,1.8 -0.9938,0 -1.8,-0.806 -1.8,-1.8 0,-0.994 0.8062,-1.8 1.8,-1.8 0.9937,0 1.8,0.806 1.8,1.8" /><path
       inkscape:connector-curvature="0"
       id="path122"
       style="fill:#000000;fill-opacity:1;fill-rule:nonzero;stroke:none"
       d="m 102.96,43.2 c 0,0.9938 -0.806,1.8 -1.8,1.8 -0.994,0 -1.7998,-0.8062 -1.7998,-1.8 0,-0.9937 0.8058,-1.8 1.7998,-1.8 0.994,0 1.8,0.8063 1.8,1.8" /><path
       inkscape:connector-curvature="0"
       id="path124"
       style="fill:#000000;fill-opacity:1;fill-rule:nonzero;stroke:none"
       d="m 59.7602,108 c 0,0.994 -0.8063,1.8 -1.8,1.8 -0.9938,0 -1.8,-0.806 -1.8,-1.8 0,-0.994 0.8062,-1.8 1.8,-1.8 0.9937,0 1.8,0.806 1.8,1.8" /><path
       inkscape:connector-curvature="0"
       id="path126"
       style="fill:#000000;fill-opacity:1;fill-rule:nonzero;stroke:none"
       d="m 59.7602,108 c 0,0.994 -0.8063,1.8 -1.8,1.8 -0.9938,0 -1.8,-0.806 -1.8,-1.8 0,-0.994 0.8062,-1.8 1.8,-1.8 0.9937,0 1.8,0.806 1.8,1.8" /><path
       inkscape:connector-curvature="0"
       id="path128"
       style="fill:#000000;fill-opacity:1;fill-rule:nonzero;stroke:none"
       d="m 102.96,108 c 0,0.994 -0.806,1.8 -1.8,1.8 -0.994,0 -1.7998,-0.806 -1.7998,-1.8 0,-0.994 0.8058,-1.8 1.7998,-1.8 0.994,0 1.8,0.806 1.8,1.8" /><path
       inkscape:connector-curvature="0"
       id="path130"
       style="fill:#000000;fill-opacity:1;fill-rule:nonzero;stroke:none"
       d="m 102.96,108 c 0,0.994 -0.806,1.8 -1.8,1.8 -0.994,0 -1.7998,-0.806 -1.7998,-1.8 0,-0.994 0.8058,-1.8 1.7998,-1.8 0.994,0 1.8,0.806 1.8,1.8" /><path
       inkscape:connector-curvature="0"
       id="path132"
       style="fill:#000000;fill-opacity:1;fill-rule:nonzero;stroke:none"
       d="m 102.96,43.2 c 0,0.9938 -0.806,1.8 -1.8,1.8 -0.994,0 -1.7998,-0.8062 -1.7998,-1.8 0,-0.9937 0.8058,-1.8 1.7998,-1.8 0.994,0 1.8,0.8063 1.8,1.8" /><path
       inkscape:connector-curvature="0"
       id="path134"
       style="fill:#000000;fill-opacity:1;fill-rule:nonzero;stroke:none"
       d="m 102.96,43.2 c 0,0.9938 -0.806,1.8 -1.8,1.8 -0.994,0 -1.7998,-0.8062 -1.7998,-1.8 0,-0.9937 0.8058,-1.8 1.7998,-1.8 0.994,0 1.8,0.8063 1.8,1.8" /><text
       xml:space="preserve"
       style="font-size:13px;font-style:normal;font-weight:normal;text-align:start;line-height:125%;letter-spacing:0px;word-spacing:0px;text-anchor:start;fill:#000000;fill-opacity:1;stroke:none;font-family:Sans"
       x="44"
       y="-4.8828124e-06"
       id="text3307"
       sodipodi:linespacing="125%"
       transform="scale(1,-1)"><tspan
         sodipodi:role="line"
         id="tspan3309"
         x="44"
         y="-4.8828124e-06">- 15 V</tspan></text>
<text
       xml:space="preserve"
       style="font-size:13px;font-style:normal;font-weight:normal;text-align:start;line-height:125%;letter-spacing:0px;word-spacing:0px;text-anchor:start;fill:#000000;fill-opacity:1;stroke:none;font-family:Sans"
       x="-5.5999999"
       y="-65.600006"
       id="text3311"
       sodipodi:linespacing="125%"
       transform="scale(1,-1)"><tspan
         sodipodi:role="line"
         id="tspan3313"
         x="-5.5999999"
         y="-65.600006">$V\ped{in}$</tspan></text>
<text
       xml:space="preserve"
       style="font-size:13px;font-style:normal;font-weight:normal;text-align:start;line-height:125%;letter-spacing:0px;word-spacing:0px;text-anchor:start;fill:#000000;fill-opacity:1;stroke:none;font-family:Sans"
       x="124"
       y="-28.000006"
       id="text3311-2"
       sodipodi:linespacing="125%"
       transform="scale(1,-1)"><tspan
         sodipodi:role="line"
         id="tspan3313-4"
         x="124"
         y="-28.000006">$V\ped{out}$</tspan></text>
<path
       inkscape:connector-curvature="0"
       id="path126-2"
       style="fill:#000000;fill-opacity:1;fill-rule:nonzero;stroke:none"
       d="m 1.7025729,57.715251 c 0,0.994 -0.80630002,1.8 -1.80000002,1.8 -0.99379998,0 -1.79999998,-0.806 -1.79999998,-1.8 0,-0.994 0.8062,-1.8 1.79999998,-1.8 0.9937,0 1.80000002,0.806 1.80000002,1.8" /><path
       inkscape:connector-curvature="0"
       id="path126-29"
       style="fill:#000000;fill-opacity:1;fill-rule:nonzero;stroke:none"
       d="m 131.80978,43.426269 c 0,0.994 -0.8063,1.8 -1.8,1.8 -0.9938,0 -1.8,-0.806 -1.8,-1.8 0,-0.994 0.8062,-1.8 1.8,-1.8 0.9937,0 1.8,0.806 1.8,1.8" /><path
       style="font-size:13px;font-style:normal;font-weight:normal;text-align:start;line-height:125%;letter-spacing:0px;word-spacing:0px;text-anchor:start;fill:#000000;fill-opacity:1;stroke:none;font-family:Sans"
       d="m 52.539398,44.858948 c -0.22155,-10e-6 -0.45447,-0.0337 -0.70588,-0.0735 -0.24893,-0.03986 -0.52257,-0.09685 -0.80883,-0.1765 l 0,-0.66176 c 0.28378,0.0946 0.54293,0.16107 0.77941,0.20588 0.23648,0.0448 0.46986,0.0588 0.67647,0.0588 0.37837,-1e-5 0.66602,-0.0663 0.86765,-0.22059 0.20412,-0.15185 0.30882,-0.3755 0.30882,-0.66177 0,-0.2788 -0.0975,-0.4977 -0.29411,-0.64705 -0.19666,-0.14688 -0.48205,-0.2206 -0.85294,-0.22059 l -0.69118,0 0,-0.61765 0.66176,0 c 0.41073,-10e-6 0.72687,-0.0927 0.95588,-0.27941 0.23151,-0.18421 0.35295,-0.43612 0.35295,-0.76471 0,-0.35596 -0.13343,-0.63683 -0.38236,-0.82353 -0.24644,-0.18669 -0.60057,-0.27941 -1.07352,-0.27941 -0.27134,0 -0.53049,0.0407 -0.77942,0.10294 -0.24892,0.0622 -0.48207,0.15744 -0.69118,0.27941 l 0,-0.73529 c 0.26387,-0.0921 0.51828,-0.16108 0.76471,-0.20588 0.24893,-0.0473 0.48659,-0.0735 0.72059,-0.0735 0.69699,0 1.23927,0.15467 1.61765,0.45588 0.37837,0.3012 0.57353,0.72928 0.57353,1.27941 0,0.35845 -0.10471,0.65311 -0.30882,0.89706 -0.20164,0.24395 -0.492,0.40812 -0.85295,0.48529 0.3261,0.0821 0.58796,0.22959 0.76471,0.44118 0.17674,0.21408 0.2647,0.47074 0.2647,0.77941 0,0.44309 -0.16644,0.79994 -0.49999,1.05883 -0.33357,0.26136 -0.79512,0.39705 -1.36765,0.39705 z m -12.36765,-0.10294 0,-5.57353 3.47059,0 0,0.63235 -2.72059,0 0,4.94118 -0.75,0 z m 4.25,0 0,-5.57353 0.7353,0 0,4.88235 1.44117,-3.82353 0.76471,0 1.42647,3.82353 0,-4.88235 0.73529,0 0,5.57353 -1.11765,0 -1.42647,-3.79412 -1.42647,3.79412 -1.13235,0 z m 12.89706,0 -1.32353,-0.27941 0,-0.67647 1.33823,0.2647 0,-4.25 -1.23529,0 0,-0.63235 3.20588,0 0,0.63235 -1.22059,0 0,4.94118 -0.7647,0 z m 4.86765,0 -1.32353,-0.27941 0,-0.67647 1.33823,0.2647 0,-4.25 -1.23529,0 0,-0.63235 3.20588,0 0,0.63235 -1.22059,0 0,4.94118 -0.76471,0 z"
       id="text3834"
       inkscape:connector-curvature="0" /><text
       xml:space="preserve"
       style="font-size:13px;font-style:normal;font-weight:normal;text-align:start;line-height:125%;letter-spacing:0px;word-spacing:0px;text-anchor:start;fill:#000000;fill-opacity:1;stroke:none;font-family:Sans"
       x="113.6"
       y="-80.000008"
       id="text5639"
       sodipodi:linespacing="125%"
       transform="scale(1,-1)"><tspan
         sodipodi:role="line"
         id="tspan5641"
         x="113.6"
         y="-80.000008">R</tspan></text>
</g></svg>