<?xml version="1.0" encoding="UTF-8" standalone="no"?>
<!-- Created with Inkscape (http://www.inkscape.org/) -->

<svg
   xmlns:dc="http://purl.org/dc/elements/1.1/"
   xmlns:cc="http://creativecommons.org/ns#"
   xmlns:rdf="http://www.w3.org/1999/02/22-rdf-syntax-ns#"
   xmlns:svg="http://www.w3.org/2000/svg"
   xmlns="http://www.w3.org/2000/svg"
   xmlns:sodipodi="http://sodipodi.sourceforge.net/DTD/sodipodi-0.dtd"
   xmlns:inkscape="http://www.inkscape.org/namespaces/inkscape"
   width="283.46457"
   height="212.59842"
   id="svg2"
   version="1.1"
   inkscape:version="0.48.4 r9939"
   sodipodi:docname="ist.pdf">
  <defs
     id="defs4">
    <marker
       inkscape:stockid="Arrow1Mend"
       orient="auto"
       refY="0.0"
       refX="0.0"
       id="Arrow1Mend"
       style="overflow:visible;">
      <path
         id="path3778"
         d="M 0.0,0.0 L 5.0,-5.0 L -12.5,0.0 L 5.0,5.0 L 0.0,0.0 z "
         style="fill-rule:evenodd;stroke:#000000;stroke-width:1.0pt;"
         transform="scale(0.4) rotate(180) translate(10,0)" />
    </marker>
  </defs>
  <sodipodi:namedview
     id="base"
     pagecolor="#ffffff"
     bordercolor="#666666"
     borderopacity="1.0"
     inkscape:pageopacity="0.0"
     inkscape:pageshadow="2"
     inkscape:zoom="2.8"
     inkscape:cx="145.38242"
     inkscape:cy="122.21933"
     inkscape:document-units="px"
     inkscape:current-layer="layer1"
     showgrid="true"
     units="mm"
     inkscape:window-width="1920"
     inkscape:window-height="1029"
     inkscape:window-x="0"
     inkscape:window-y="25"
     inkscape:window-maximized="1">
    <inkscape:grid
       type="xygrid"
       id="grid2985"
       empspacing="5"
       visible="true"
       enabled="true"
       snapvisiblegridlinesonly="true" />
  </sodipodi:namedview>
  <metadata
     id="metadata7">
    <rdf:RDF>
      <cc:Work
         rdf:about="">
        <dc:format>image/svg+xml</dc:format>
        <dc:type
           rdf:resource="http://purl.org/dc/dcmitype/StillImage" />
        <dc:title></dc:title>
      </cc:Work>
    </rdf:RDF>
  </metadata>
  <g
     inkscape:label="Livello 1"
     inkscape:groupmode="layer"
     id="layer1"
     transform="translate(0,-839.76375)">
    <rect
       style="fill:#e8e8e8;fill-opacity:1;stroke:none"
       id="rect4243"
       width="225"
       height="25"
       x="34.642857"
       y="892.7193" />
    <path
       style="fill:none;stroke:#000000;stroke-width:0.99999994px;stroke-linecap:butt;stroke-linejoin:miter;stroke-opacity:1"
       d="M 35.142857,892.7193"
       id="path2989"
       inkscape:connector-curvature="0" />
    <path
       style="fill:none;stroke:#000000;stroke-width:0.5;stroke-linecap:butt;stroke-linejoin:miter;stroke-miterlimit:4;stroke-opacity:1;stroke-dasharray:none;stroke-dashoffset:0"
       d="m 35.142857,892.7193 223.343113,0"
       id="path2991"
       inkscape:connector-curvature="0" />
    <path
       style="fill:none;stroke:#000000;stroke-width:0.5;stroke-linecap:butt;stroke-linejoin:miter;stroke-miterlimit:4;stroke-opacity:1;stroke-dasharray:none;stroke-dashoffset:0"
       d="m 35.142857,917.7193 223.343113,0"
       id="path2993"
       inkscape:connector-curvature="0" />
    <path
       style="fill:none;stroke:#000000;stroke-width:0.5;stroke-linecap:butt;stroke-linejoin:miter;stroke-miterlimit:4;stroke-opacity:1;stroke-dasharray:none;marker-end:url(#Arrow1Mend)"
       d="m 35.142857,1012.7193 223.343113,0"
       id="path2995"
       inkscape:connector-curvature="0" />
    <text
       xml:space="preserve"
       style="font-size:13px;font-style:normal;font-weight:normal;line-height:125%;letter-spacing:0px;word-spacing:0px;fill:#000000;fill-opacity:1;stroke:none;font-family:Sans"
       x="4.6428566"
       y="907.7193"
       id="text4209"
       sodipodi:linespacing="125%"><tspan
         sodipodi:role="line"
         id="tspan4211"
         x="4.6428566"
         y="907.7193">IN</tspan></text>
    <text
       xml:space="preserve"
       style="font-size:13px;font-style:normal;font-weight:normal;line-height:125%;letter-spacing:0px;word-spacing:0px;fill:#000000;fill-opacity:1;stroke:none;font-family:Sans"
       x="4.6428566"
       y="1002.7193"
       id="text4213"
       sodipodi:linespacing="125%"><tspan
         sodipodi:role="line"
         id="tspan4215"
         x="4.6428566"
         y="1002.7193">OUT</tspan></text>
    <path
       style="fill:none;stroke:#000000;stroke-width:1.5;stroke-linecap:butt;stroke-linejoin:miter;stroke-miterlimit:4;stroke-opacity:1;stroke-dasharray:none"
       d="m 35.75,927.7193 c 0.238095,0.2381 0.952381,0.47619 0.714286,0.71429 -0.238095,0.23809 -0.864871,-1.01546 -0.714286,-0.71429 0.383917,0.76784 0.973586,1.41488 1.428572,2.14286 0.141085,0.22574 0.238095,0.47619 0.357142,0.71429 0.357143,0.71428 0.714286,1.42857 1.071429,2.14285 0.119048,0.2381 0.168912,0.52606 0.357143,0.71429 0.188231,0.18823 0.554566,0.14418 0.714286,0.35714 0.225877,0.30117 0.163454,0.74862 0.357142,1.07143 0.17324,0.28873 0.512256,0.44491 0.714286,0.71429 0.159719,0.21295 0.209483,0.49279 0.357143,0.71428 0.327548,0.49132 0.550971,0.36732 1.071429,0.71429 0.140082,0.0934 0.206558,0.28185 0.357142,0.35714 0.10648,0.0532 0.238096,0 0.357143,0 0.119048,0 0.238095,0 0.357143,0 0.119048,0 0.272964,0.0842 0.357143,0 0.188231,-0.18823 0.238095,-0.47619 0.357143,-0.71429 0.119047,-0.23809 0.258279,-0.46712 0.357143,-0.71428 0.139814,-0.34954 0.188784,-0.73471 0.357143,-1.07143 0.191958,-0.38392 0.501326,-0.69875 0.714285,-1.07143 0.264143,-0.46225 0.450143,-0.96632 0.714286,-1.42857 0.662968,-1.16019 0.800829,-1.15797 1.785714,-2.14286 0.238096,-0.23809 0.476191,-0.47619 0.714286,-0.71428 0.238095,-0.2381 0.444912,-0.51226 0.714286,-0.71429 0.425917,-0.31944 0.98559,-0.41896 1.428571,-0.71428 0.140083,-0.0934 0.206558,-0.28186 0.357143,-0.35715 0.07326,-0.0366 1.021062,-0.0504 1.071429,0 0.08418,0.0842 -0.03765,0.24421 0,0.35715 0.08418,0.25253 0.272963,0.46174 0.357142,0.71428 0.03765,0.11294 -0.03765,0.24421 0,0.35714 0.08418,0.25254 0.238096,0.47619 0.357143,0.71429 0.119048,0.23809 0.168912,0.52605 0.357143,0.71429 2.380953,2.38095 -0.833333,-1.78572 1.071429,1.07142 0.327548,0.49133 0.550971,0.36732 1.071428,0.71429 0.140083,0.0934 0.206558,0.28185 0.357143,0.35714 0.10648,0.0532 0.250664,-0.0532 0.357143,0 0.150585,0.0753 0.206558,0.28185 0.357143,0.35715 0.106479,0.0532 0.238095,0 0.357143,0 0.09985,0 1.729836,0.0279 1.785714,0 0.301169,-0.15059 0.451354,-0.50394 0.714286,-0.71429 2.222307,-1.77785 -0.181126,0.56027 2.5,-1.78571 1.013623,-0.88692 1.904762,-1.90477 2.857143,-2.85715 0.47619,-0.47619 1.071651,-0.8575 1.428571,-1.42857 0.260148,-0.41624 0.13763,-0.98954 0.357143,-1.42857 0.266198,-0.5324 0.725453,-0.94421 1.071428,-1.42857 0.383195,-0.53647 1.373764,-2.15671 1.785715,-2.5 0.289206,-0.24101 0.721892,-0.21733 1.071428,-0.35714 0.247159,-0.0989 0.476193,-0.2381 0.714283,-0.35715 0.2381,-0.11905 0.46175,-0.27296 0.71429,-0.35714 0.17727,-0.0591 1.04101,-0.0304 1.07143,0 0.0842,0.0842 -0.0376,0.2442 0,0.35714 0.15896,0.47689 0.83856,1.49463 1.07143,1.78572 0.21034,0.26293 0.5275,0.43412 0.71428,0.71428 1.486343,2.22952 0.11905,0.59524 1.07143,2.5 0.19196,0.38392 0.501333,0.69875 0.714293,1.07143 0.26414,0.46225 0.45014,0.96632 0.71428,1.42857 0.21296,0.37268 0.50133,0.69875 0.71429,1.07143 0.26414,0.46225 0.41896,0.98559 0.71428,1.42857 0.18678,0.28017 0.50394,0.45136 0.71429,0.71429 0.70287,0.87859 0.56624,1.13897 1.42857,1.78571 0.21296,0.15972 0.4928,0.20948 0.71429,0.35715 0.1734,0.1156 0.64539,0.71428 0.71428,0.71428 0.50169,0 0.31446,-0.50084 0.35714,-0.71428 0.0963,-0.48132 0.2381,-0.95239 0.35715,-1.42858 0.11904,-0.47619 0.23809,-0.95238 0.35714,-1.42857 0,-0.47619 -0.0852,-0.96006 0,-1.42857 0.15504,-0.8527 0.59974,-1.64092 0.71429,-2.5 0.84726,-6.35445 -0.88357,0.43284 0.35714,-5.35714 0.18159,-0.84744 0.53269,-1.65256 0.71428,-2.5 1.54367,-7.20378 -1.06883,2.66882 1.07143,-5.35714 0.22331,-0.83742 0.53269,-1.65256 0.71429,-2.5 0.17638,-0.82311 0.19205,-1.67456 0.35714,-2.5 0.19253,-0.96263 0.46134,-1.9086 0.71429,-2.85715 0.22331,-0.83741 0.54431,-1.65015 0.71428,-2.5 0.18823,-0.94115 0.16892,-1.91599 0.35715,-2.85714 0.16997,-0.84985 0.49097,-1.66258 0.71428,-2.5 0.25295,-0.94855 0.46134,-1.9086 0.71429,-2.85714 0.61408,-2.30283 0.70696,-2.47802 1.42857,-4.64286 0.23809,-0.71429 0.49793,-1.42169 0.71428,-2.14286 0.14105,-0.47014 0.1848,-0.96898 0.35715,-1.42857 0.18693,-0.4985 0.47619,-0.95238 0.71428,-1.42857 0.11905,-0.2381 0.29258,-0.45604 0.35715,-0.71429 0.0577,-0.23098 -0.0577,-0.4833 0,-0.71428 -0.21526,-0.64641 0.57855,-0.66422 0.71428,-1.07143 0.0753,-0.22588 -0.0753,-0.48841 0,-0.71429 0.0532,-0.15972 0.3039,-0.19742 0.35714,-0.35714 5.4e-4,-0.002 -3.4e-4,-1.07109 0,-1.07143 0.0842,-0.0842 0.27297,-0.0842 0.35715,0 0.0842,0.0842 -0.0532,0.25067 0,0.35715 0.0753,0.15058 0.23809,0.23809 0.35714,0.35714 0.2381,0.23809 0.54105,0.42555 0.71429,0.71428 0.19368,0.32282 0.18878,0.73471 0.35714,1.07143 0.19196,0.38392 0.49345,0.70337 0.71428,1.07143 0.13696,0.22826 0.22019,0.48602 0.35715,0.71429 0.44167,0.73612 0.95238,1.42857 1.42857,2.14285 1.793247,2.68989 -0.31231,-0.72873 1.071427,2.5 0.16908,0.39453 0.50132,0.69875 0.71428,1.07143 0.40941,0.71647 1.22892,2.48222 1.42857,3.21429 0.19054,0.69862 0.10968,1.46231 0.35715,2.14286 0.23722,0.65236 0.81362,1.1412 1.07143,1.78571 0.22544,0.56361 0.16518,1.20984 0.35714,1.78571 0.16836,0.50508 0.52735,0.93008 0.71428,1.42858 0.17235,0.45959 0.1848,0.96897 0.35715,1.42857 0.18693,0.4985 0.50456,0.93922 0.71428,1.42857 0.1483,0.34602 0.21733,0.72189 0.35715,1.07143 0.19772,0.49432 0.47619,0.95238 0.71428,1.42857 0.11905,0.23809 0.20948,0.49279 0.35714,0.71428 0.0934,0.14009 0.2381,0.2381 0.35715,0.35715 0.11904,0.23809 0.20948,0.49279 0.35714,0.71428 0.0934,0.14009 0.28185,0.20656 0.35714,0.35715 0.0532,0.10647 -0.0532,0.25066 0,0.35714 0.15059,0.30117 0.5637,0.41311 0.71429,0.71428 0.0532,0.10648 -0.0532,0.25067 0,0.35715 0.0753,0.15058 0.23809,0.23809 0.35714,0.35714 0.11905,0.11905 0.2381,0.23809 0.35714,0.35714 0.47619,0.47619 0.95239,0.95238 1.42858,1.42857 0.18802,0.18803 0.88068,0.97606 1.07142,1.07143 0.10648,0.0532 0.27297,0.0842 0.35715,0 0.16836,-0.16836 -0.0753,-0.48841 0,-0.71428 0.0842,-0.25254 0.29258,-0.45604 0.35714,-0.71429 0.636,-2.544 -1.0809,1.80938 0.35714,-1.78571 0.0989,-0.24716 0.2381,-0.47619 0.35715,-0.71429 0.23809,-0.35714 0.5452,-0.6769 0.71428,-1.07143 0.19336,-0.45116 0.16379,-0.97741 0.35714,-1.42857 0.007,-0.0153 1.40699,-2.10507 1.42858,-2.14286 0.26414,-0.46225 0.41896,-0.98559 0.71428,-1.42857 1.22363,-1.22363 0.30984,-0.15925 1.07143,-1.42857 0.22084,-0.36806 0.52233,-0.68751 0.71429,-1.07143 0.0532,-0.10648 -0.0842,-0.27296 0,-0.35714 0.0842,-0.0842 0.27296,0.0842 0.35714,0 0.0842,-0.0842 -0.0842,-0.27296 0,-0.35714 0.0842,-0.0842 0.27296,-0.0842 0.35714,0 0.16836,0.16836 -0.13207,0.51618 0,0.71428 0.18678,0.28017 0.47619,0.47619 0.71429,0.71429 0.11904,0.35714 0.16345,0.74861 0.35714,1.07143 0.17324,0.28873 0.54105,0.42555 0.71429,0.71428 0.19368,0.32282 0.20884,0.72541 0.35714,1.07143 0.76619,1.78777 0.53188,1.00552 1.42857,2.5 0.13696,0.22826 0.22019,0.48602 0.35714,0.71429 0.22084,0.36806 0.47619,0.71428 0.71429,1.07143 0.23809,0.35714 0.44615,0.73625 0.71428,1.07142 0.21035,0.26294 0.4762,0.47619 0.71429,0.71429 0.11905,0.11905 0.20656,0.28185 0.35714,0.35714 0.10648,0.0532 0.2381,0 0.35715,0 0.11904,0 0.27296,0.0842 0.35714,0 0.0842,-0.0842 -0.0532,-0.25066 0,-0.35714 0.0753,-0.15059 0.3039,-0.19742 0.35714,-0.35714 0.0753,-0.22588 -0.0577,-0.4833 0,-0.71429 0.10982,-0.43928 0.9178,-1.55527 1.07143,-1.78571 0.2381,-0.35715 0.47619,-0.71429 0.71429,-1.07143 0.23809,-0.35714 0.41077,-0.76792 0.71428,-1.07143 0.4209,-0.4209 0.98369,-0.67597 1.42857,-1.07143 0.62917,-0.55926 1.19048,-1.19048 1.78572,-1.78571 0.71428,-0.71429 1.42857,-1.42857 2.14285,-2.14286 3.57143,-3.57143 7.14286,-7.14286 10.71429,-10.71429 5.6753,-5.6753 -0.9036,1.18377 3.57143,-4.28571 0.53305,-0.65151 1.19048,-1.19048 1.78571,-1.78571 0.47619,-0.4762 0.95238,-0.95239 1.42857,-1.42858 0.21006,-0.21005 1.26319,-1.34587 1.42858,-1.42857 0.10648,-0.0532 0.27296,-0.0842 0.35714,0 0.0842,0.0842 -0.0289,0.24165 0,0.35715 0.0913,0.36522 0.16345,0.74861 0.35714,1.07142 0.17324,0.28874 0.58923,0.40166 0.71429,0.71429 0.13264,0.3316 -0.11294,0.73261 0,1.07143 0.13573,0.4072 0.47619,0.71428 0.71428,1.07143 0.2381,0.47619 0.56131,0.91862 0.71429,1.42857 0.20808,0.6936 0.16661,1.44423 0.35714,2.14286 0.16868,0.6185 0.47619,1.19047 0.71429,1.78571 0.11905,0.71429 0.18151,1.44034 0.35714,2.14286 0.0125,0.0502 1.42353,4.25797 1.42857,4.28571 1.17456,6.46007 -1.52677,-3.60708 0.35714,3.92857 0.18032,1.41164 1.06194,2.58426 1.42858,3.92857 0.19053,0.69863 0.18151,1.44034 0.35714,2.14286 0.36522,1.46089 1.03236,2.83293 1.42857,4.28572 0.15972,0.58563 0.19742,1.20007 0.35714,1.78571 0.0146,0.0534 1.42531,4.26615 1.42857,4.28571 0,4.96676 -0.26527,-0.47947 0.71429,3.92858 0.53317,2.39928 -0.66508,0.47196 0.35714,2.85714 0.16909,0.39452 0.59637,0.65871 0.71429,1.07143 0.13082,0.45787 -0.0934,0.96163 0,1.42857 0.066,0.33018 0.5637,0.41311 0.71428,0.71428 0.0532,0.10648 -0.0842,0.27297 0,0.35715 0.0842,0.0842 0.2381,0 0.35715,0 0.11905,0 0.27296,0.0842 0.35714,0 0.0842,-0.0842 -0.0842,-0.27297 0,-0.35715 0.0842,-0.0842 0.2381,0 0.35714,0 0.11905,0 0.27297,-0.0842 0.35715,0 0.0842,0.0842 -0.0532,0.25067 0,0.35715 0.0753,0.15058 0.28185,0.20655 0.35714,0.35714 0.0532,0.10648 -0.0532,0.25066 0,0.35714 0.0753,0.15059 0.28185,0.20656 0.35714,0.35715 0.0532,0.10647 -0.0532,0.25066 0,0.35714 0.0753,0.15058 0.28185,0.20656 0.35714,0.35714 0.0532,0.10648 -0.0532,0.25066 0,0.35714 0.15828,0.31655 0.85469,0.74632 1.07143,1.07143 0.0444,0.0665 0.6914,1.40569 0.71429,1.42857 0.18823,0.18823 0.52605,0.16892 0.71428,0.35715 0.18824,0.18823 0.27297,0.46174 0.35715,0.71428 0.0376,0.11294 -0.0842,0.27297 0,0.35715 0.55258,0.55257 0.35714,-0.95386 0.35714,-1.07143 0,-0.71429 0,-1.42857 0,-2.14286 0,-0.35714 -0.0443,-0.71704 0,-1.07143 0.32909,-2.63274 0.22837,-0.91347 0.71429,-2.85714 0.14722,-0.5889 0.25734,-1.18695 0.35714,-1.78572 0.13839,-0.83034 0.12588,-1.69059 0.35714,-2.5 0.24907,-0.87175 0.76649,-1.64618 1.07143,-2.5 0.58299,-1.63237 0.7619,-3.39997 1.42857,-5 0.26699,-0.64076 0.73432,-1.1789 1.07143,-1.78571 0.25856,-0.4654 0.47619,-0.95238 0.71429,-1.42857 0.47619,-0.95238 0.95238,-1.90476 1.42857,-2.85714 0.23809,-0.4762 0.41896,-0.98559 0.71428,-1.42858 -0.3056,-1.65693 0.76792,-0.41077 1.07143,-0.71428 0.0842,-0.0842 -0.0842,-0.27297 0,-0.35714 0.0842,-0.0842 0.27297,-0.0842 0.35714,0 0.0842,0.0842 -0.0376,0.2442 0,0.35714 0.0842,0.25254 0.2381,0.47619 0.35715,0.71428 0.11905,0.2381 0.19742,0.50133 0.35714,0.71429 0.20203,0.26937 0.54105,0.42555 0.71429,0.71429 0.19368,0.32281 0.18878,0.73471 0.35714,1.07142 0.87399,1.74798 0.43201,0.45697 1.42857,1.78572 0.15972,0.21296 0.19742,0.50133 0.35714,0.71428 0.20203,0.26938 0.50394,0.45136 0.71429,0.71429 0.26814,0.33517 0.45675,0.72804 0.71428,1.07143 0.30305,0.40406 0.71429,0.71428 1.07143,1.07143 0.44718,0.44718 0.76194,0.71428 1.42857,0.71428 0.11905,0 0.27297,0.0842 0.35715,0 0.0842,-0.0842 -0.0377,-0.2442 0,-0.35714 0.0842,-0.25254 0.27296,-0.46175 0.35714,-0.71429 0.0377,-0.11293 0,-0.23809 0,-0.35714 0.11905,-0.23809 0.25828,-0.46713 0.35714,-0.71428 0.13982,-0.34954 0.18879,-0.73472 0.35715,-1.07143 0.38391,-0.76784 1.00265,-1.3975 1.42857,-2.14286 0.52828,-0.9245 0.95238,-1.90476 1.42857,-2.85714 0.43664,-0.87329 0.79757,-1.7428 1.42857,-2.5 2.29157,-2.74989 0.0123,0.51729 1.78571,-2.14286 0.2381,-0.35714 0.49345,-0.70337 0.71429,-1.07143 0.13696,-0.22826 0.16891,-0.52605 0.35714,-0.71428 0.18823,-0.18824 0.52606,-0.16892 0.71429,-0.35715 0.0842,-0.0842 -0.0842,-0.27296 0,-0.35714 0.0842,-0.0842 0.23809,0 0.35714,0 0.11905,0 0.3039,-0.10648 0.35714,0 1.05605,2.1121 -1.28717,-0.76386 0.35715,1.42857 0.20203,0.26938 0.51225,0.44491 0.71428,0.71429 0.15972,0.21296 0.19743,0.50132 0.35715,0.71428 0.20203,0.26938 0.51225,0.44491 0.71428,0.71429 0.15972,0.21296 0.22019,0.48602 0.35714,0.71428 0.22084,0.36807 0.4762,0.71429 0.71429,1.07143 0.2381,0.35715 0.44615,0.73626 0.71429,1.07143 0.21034,0.26293 0.47619,0.47619 0.71428,0.71429 0.35714,0.35714 0.71429,0.71428 1.07143,1.07143 0.2381,0.23809 0.47619,0.47619 0.71429,0.71428 0.23809,0.2381 0.44491,0.51226 0.71428,0.71429 0.23194,0.17395 1.85466,0.97536 2.14286,1.07143 0.11294,0.0376 0.23809,0 0.35714,0 0.11905,0 0.27297,0.0842 0.35714,0 0.18824,-0.18824 0.2381,-0.4762 0.35715,-0.71429 0.11905,-0.2381 0.25828,-0.46713 0.35714,-0.71429 0.13981,-0.34953 0.18878,-0.73471 0.35714,-1.07142 0.19196,-0.38392 0.54521,-0.67691 0.71429,-1.07143 0.21998,-0.51328 0.61258,-2.80749 0.71428,-3.21429 0.21021,-0.8408 0.4762,-1.66667 0.71429,-2.5 0.2381,-0.83333 0.40317,-1.69109 0.71429,-2.5 0.28668,-0.74536 0.78475,-1.39749 1.07142,-2.14286 0.31112,-0.80891 0.45941,-1.67164 0.71429,-2.5 0.22142,-0.71962 0.45698,-1.43526 0.71429,-2.14285 0.21908,-0.6025 0.5456,-1.16722 0.71428,-1.78572 0.19054,-0.69862 0.10968,-1.46231 0.35714,-2.14285 0.23723,-0.65237 0.78951,-1.15139 1.07143,-1.78572 0.19935,-0.44854 0.1848,-0.96898 0.35715,-1.42857 0.18693,-0.4985 0.52734,-0.93007 0.71428,-1.42857 0.17235,-0.4596 0.1848,-0.96898 0.35714,-1.42857 0.18694,-0.4985 0.4762,-0.95238 0.71429,-1.42857 0.2381,-0.4762 0.3817,-1.01284 0.71429,-1.42858 0.16629,-0.20786 0.52605,-0.16891 0.71428,-0.35714 0.77992,-0.77992 0.0742,-0.57986 0.35714,-1.42857 0.20432,-0.61294 1.22426,-0.45849 1.42858,-1.07143 0.0753,-0.22588 -0.10648,-0.50133 0,-0.71428 0.009,-0.0183 1.03937,-0.0321 1.07142,0 0.0842,0.0842 -0.0532,0.25066 0,0.35714 0.0753,0.15058 0.26376,0.21706 0.35715,0.35714 0.29532,0.44298 0.39484,1.00265 0.71428,1.42857 1.54475,1.54475 0.056,-0.0946 1.07143,1.42857 0.0934,0.14009 0.2381,0.2381 0.35714,0.35715 0.11905,0.23809 0.20949,0.49279 0.35715,0.71428 0.71428,1.07143 0,-0.71428 1.07143,1.07143 0.19368,0.32281 0.16345,0.74862 0.35714,1.07143 0.17324,0.28873 0.47619,0.47619 0.71428,0.71429 0.59524,0.59523 1.19048,1.19047 1.78572,1.78571 0.23809,0.23809 0.51225,0.44491 0.71428,0.71429 0.15972,0.21295 0.20949,0.49279 0.35715,0.71428 0.0934,0.14008 0.23809,0.2381 0.35714,0.35714 0.11905,0.11905 0.20656,0.28185 0.35714,0.35715 0.10648,0.0532 0.2381,0 0.35715,0 0.11904,0 0.23809,0 0.35714,0 0.11905,0 0.23809,0 0.35714,0 0.11905,0 0.27297,0.0842 0.35714,0 0.0842,-0.0842 -0.0532,-0.25067 0,-0.35715 0.10827,-0.21653 1.31386,-1.27561 1.42858,-1.42857 0.15972,-0.21296 0.19742,-0.50132 0.35714,-0.71428 0.20203,-0.26938 0.50394,-0.45136 0.71428,-0.71429 0.53628,-0.67035 0.95239,-1.42857 1.42858,-2.14286 0.23809,-0.35714 0.52232,-0.68751 0.71428,-1.07142 0.16836,-0.33672 0.18879,-0.73472 0.35714,-1.07143 0.38392,-0.76784 0.9869,-1.40673 1.42858,-2.14286 0.13695,-0.22826 0.19742,-0.50133 0.35714,-0.71429 0.20203,-0.26937 0.51225,-0.44491 0.71428,-0.71428 0.15972,-0.21296 0.2381,-0.47619 0.35715,-0.71429 0.11905,-0.23809 0.29258,-0.45603 0.35714,-0.71428 0.0577,-0.23099 -0.0577,-0.4833 0,-0.71429 0.25895,-1.0358 0.27863,-0.41795 0.71429,-1.07143 0.14766,-0.22149 0.20948,-0.49279 0.35714,-0.71428 0.0934,-0.14009 0.28185,-0.20656 0.35714,-0.35715 0.43981,-0.87962 -1.03669,0.32241 0.35714,-1.07142 0.0842,-0.0842 0.27297,0.0842 0.35715,0 0,-0.95239 -0.11905,0.11904 0.35714,-0.35715 0.0842,-0.0842 0,-0.23809 0,-0.35714 0,-0.71429 0,-1.42857 0,-2.14286"
       id="path4235"
       inkscape:connector-curvature="0" />
    <path
       style="fill:none;stroke:#000000;stroke-width:0.80000001;stroke-linecap:butt;stroke-linejoin:miter;stroke-miterlimit:4;stroke-opacity:1;stroke-dasharray:3.2, 1.6;stroke-dashoffset:0"
       d="m 90.750003,852.7193 0,190"
       id="path4237"
       inkscape:connector-curvature="0"
       sodipodi:nodetypes="cc" />
    <path
       style="fill:none;stroke:#000000;stroke-width:0.80000001;stroke-linecap:butt;stroke-linejoin:miter;stroke-miterlimit:4;stroke-opacity:1;stroke-dasharray:3.2, 1.6;stroke-dashoffset:0"
       d="m 165.75,1042.7193 0,-190"
       id="path4239"
       inkscape:connector-curvature="0" />
    <path
       style="fill:none;stroke:#000000;stroke-width:0.80000001;stroke-linecap:butt;stroke-linejoin:miter;stroke-miterlimit:4;stroke-opacity:1;stroke-dasharray:3.2, 1.6;stroke-dashoffset:0"
       d="m 215.75,852.7193 0,190"
       id="path4241"
       inkscape:connector-curvature="0" />
    <path
       style="fill:none;stroke:#000000;stroke-width:1.5;stroke-linecap:butt;stroke-linejoin:miter;stroke-miterlimit:4;stroke-opacity:1;stroke-dasharray:none"
       d="m 35,1012.3622 55.750003,0.3571 0,-45 74.999997,0 0,45 50,0 0,-45 30,0"
       id="path4245"
       inkscape:connector-curvature="0"
       sodipodi:nodetypes="cccccccc" />
    <text
       xml:space="preserve"
       style="font-size:13px;font-style:normal;font-weight:normal;line-height:125%;letter-spacing:0px;word-spacing:0px;fill:#000000;fill-opacity:1;stroke:none;font-family:Sans"
       x="260"
       y="887.36218"
       id="text4266"
       sodipodi:linespacing="125%"><tspan
         sodipodi:role="line"
         id="tspan4268"
         x="260"
         y="887.36218">$V\ped{OH}$</tspan></text>
    <text
       xml:space="preserve"
       style="font-size:13px;font-style:normal;font-weight:normal;line-height:125%;letter-spacing:0px;word-spacing:0px;fill:#000000;fill-opacity:1;stroke:none;font-family:Sans"
       x="260"
       y="927.36218"
       id="text4266-8"
       sodipodi:linespacing="125%"><tspan
         sodipodi:role="line"
         id="tspan4268-7"
         x="260"
         y="927.36218">$V\ped{OL}$</tspan></text>
  </g>
</svg>
