<?xml version="1.0" encoding="UTF-8" standalone="no"?>
<!-- Created with Inkscape (http://www.inkscape.org/) -->

<svg
   xmlns:dc="http://purl.org/dc/elements/1.1/"
   xmlns:cc="http://creativecommons.org/ns#"
   xmlns:rdf="http://www.w3.org/1999/02/22-rdf-syntax-ns#"
   xmlns:svg="http://www.w3.org/2000/svg"
   xmlns="http://www.w3.org/2000/svg"
   xmlns:sodipodi="http://sodipodi.sourceforge.net/DTD/sodipodi-0.dtd"
   xmlns:inkscape="http://www.inkscape.org/namespaces/inkscape"
   id="svg3399"
   version="1.1"
   inkscape:version="0.48.4 r9939"
   width="265.45941"
   height="203.53506"
   xml:space="preserve"
   sodipodi:docname="trigger_schmitt.pdf"><metadata
     id="metadata3405"><rdf:RDF><cc:Work
         rdf:about=""><dc:format>image/svg+xml</dc:format><dc:type
           rdf:resource="http://purl.org/dc/dcmitype/StillImage" /><dc:title></dc:title></cc:Work></rdf:RDF></metadata><defs
     id="defs3403" /><sodipodi:namedview
     pagecolor="#ffffff"
     bordercolor="#666666"
     borderopacity="1"
     objecttolerance="10"
     gridtolerance="10"
     guidetolerance="10"
     inkscape:pageopacity="0"
     inkscape:pageshadow="2"
     inkscape:window-width="1920"
     inkscape:window-height="1029"
     id="namedview3401"
     showgrid="true"
     fit-margin-top="10"
     fit-margin-left="20"
     fit-margin-right="-110"
     fit-margin-bottom="20"
     inkscape:zoom="2.6222222"
     inkscape:cx="176.93702"
     inkscape:cy="40.418159"
     inkscape:window-x="0"
     inkscape:window-y="25"
     inkscape:window-maximized="1"
     inkscape:current-layer="g3407"><inkscape:grid
       type="xygrid"
       id="grid3746"
       empspacing="5"
       visible="true"
       enabled="true"
       snapvisiblegridlinesonly="true"
       originx="-6.348877px"
       originy="18.157883px" /></sodipodi:namedview><g
     id="g3407"
     inkscape:groupmode="layer"
     inkscape:label="ink_ext_XXXXXX"
     transform="matrix(1.25,0,0,-1.25,-6.348877,185.37716)"><path
       inkscape:connector-curvature="0"
       id="path3411"
       style="fill:none;stroke:#000000;stroke-width:0.71999997;stroke-linecap:square;stroke-linejoin:miter;stroke-miterlimit:10;stroke-opacity:1;stroke-dasharray:none"
       d="m 108.36,42.400082 0,57.599998" /><path
       inkscape:connector-curvature="0"
       id="path3413"
       style="fill:none;stroke:#000000;stroke-width:0.71999997;stroke-linecap:square;stroke-linejoin:miter;stroke-miterlimit:10;stroke-opacity:1;stroke-dasharray:none"
       d="m 151.56,71.200082 -43.2,28.799998" /><path
       inkscape:connector-curvature="0"
       id="path3415"
       style="fill:none;stroke:#000000;stroke-width:0.71999997;stroke-linecap:square;stroke-linejoin:miter;stroke-miterlimit:10;stroke-opacity:1;stroke-dasharray:none"
       d="m 108.36,42.400082 43.2,28.8" /><path
       inkscape:connector-curvature="0"
       id="path3417"
       style="fill:none;stroke:#000000;stroke-width:0.71999997;stroke-linecap:square;stroke-linejoin:miter;stroke-miterlimit:10;stroke-opacity:1;stroke-dasharray:none"
       d="m 115.56,53.200082 0,7.2" /><path
       inkscape:connector-curvature="0"
       id="path3419"
       style="fill:none;stroke:#000000;stroke-width:0.71999997;stroke-linecap:square;stroke-linejoin:miter;stroke-miterlimit:10;stroke-opacity:1;stroke-dasharray:none"
       d="m 119.16,85.600082 -7.2,0" /><path
       inkscape:connector-curvature="0"
       id="path3421"
       style="fill:none;stroke:#000000;stroke-width:0.71999997;stroke-linecap:square;stroke-linejoin:miter;stroke-miterlimit:10;stroke-opacity:1;stroke-dasharray:none"
       d="m 119.16,56.800082 -7.2,0" /><path
       inkscape:connector-curvature="0"
       id="path3423"
       style="fill:none;stroke:#000000;stroke-width:0.71999997;stroke-linecap:square;stroke-linejoin:miter;stroke-miterlimit:10;stroke-opacity:1;stroke-dasharray:none"
       d="m 108.36,85.600082 -14.3998,0" /><path
       inkscape:connector-curvature="0"
       id="path3425"
       style="fill:none;stroke:#000000;stroke-width:0.71999997;stroke-linecap:square;stroke-linejoin:miter;stroke-miterlimit:10;stroke-opacity:1;stroke-dasharray:none"
       d="m 108.36,56.800082 -14.3998,0" /><path
       inkscape:connector-curvature="0"
       id="path3427"
       style="fill:none;stroke:#000000;stroke-width:0.71999997;stroke-linecap:square;stroke-linejoin:miter;stroke-miterlimit:10;stroke-opacity:1;stroke-dasharray:none"
       d="m 165.96,71.200082 -14.4,0" /><path
       inkscape:connector-curvature="0"
       id="path3429"
       style="fill:none;stroke:#000000;stroke-width:0.71999997;stroke-linecap:square;stroke-linejoin:miter;stroke-miterlimit:10;stroke-opacity:1;stroke-dasharray:none"
       d="m 129.96,100.00008 0,-14.399998" /><path
       inkscape:connector-curvature="0"
       id="path3431"
       style="fill:none;stroke:#000000;stroke-width:0.71999997;stroke-linecap:square;stroke-linejoin:miter;stroke-miterlimit:10;stroke-opacity:1;stroke-dasharray:none"
       d="m 129.96,42.400082 0,14.4" /><g
       id="g3433"
       transform="translate(42.44,31.920132)"><text
         id="text3435"
         transform="matrix(1,0,0,-1,133.56,100.8)"><tspan
           id="tspan3439"
           sodipodi:role="line"
           y="0"
           x="0"
           style="font-size:10.39999962px;font-variant:normal;font-weight:normal;writing-mode:lr-tb;fill:#000000;fill-opacity:1;fill-rule:nonzero;stroke:none;font-family:Helvetica;-inkscape-font-specification:Helvetica">+ 15 V</tspan></text>
</g><path
       inkscape:connector-curvature="0"
       id="path3441"
       style="fill:#000000;fill-opacity:1;fill-rule:nonzero;stroke:none"
       d="m 127.8,40.239882 4.31992,0 0,4.31992 -4.31992,0 0,-4.31992 z" /><path
       inkscape:connector-curvature="0"
       id="path3443"
       style="fill:none;stroke:#000000;stroke-width:0.71999997;stroke-linecap:square;stroke-linejoin:miter;stroke-miterlimit:10;stroke-opacity:1;stroke-dasharray:none"
       d="m 79.5602,71.200082 -14.4,0" /><path
       inkscape:connector-curvature="0"
       id="path3445"
       style="fill:none;stroke:#000000;stroke-width:0.71999997;stroke-linecap:square;stroke-linejoin:miter;stroke-miterlimit:10;stroke-opacity:1;stroke-dasharray:none"
       d="m 79.5602,72.639882 0,-1.4398" /><path
       inkscape:connector-curvature="0"
       id="path3447"
       style="fill:none;stroke:#000000;stroke-width:0.71999997;stroke-linecap:square;stroke-linejoin:miter;stroke-miterlimit:10;stroke-opacity:1;stroke-dasharray:none"
       d="m 65.1602,72.639882 14.4,0" /><path
       inkscape:connector-curvature="0"
       id="path3449"
       style="fill:none;stroke:#000000;stroke-width:0.71999997;stroke-linecap:square;stroke-linejoin:miter;stroke-miterlimit:10;stroke-opacity:1;stroke-dasharray:none"
       d="m 65.1602,71.200082 0,1.4398" /><path
       inkscape:connector-curvature="0"
       id="path3451"
       style="fill:none;stroke:#000000;stroke-width:0.71999997;stroke-linecap:square;stroke-linejoin:miter;stroke-miterlimit:10;stroke-opacity:1;stroke-dasharray:none"
       d="m 72.3602,72.639882 0,12.9602" /><path
       inkscape:connector-curvature="0"
       id="path3465"
       style="fill:none;stroke:#000000;stroke-width:0.71999997;stroke-linecap:square;stroke-linejoin:miter;stroke-miterlimit:10;stroke-opacity:1;stroke-dasharray:none"
       d="m 201.96,124.72 -93.6,0" /><path
       inkscape:connector-curvature="0"
       id="path3467"
       style="fill:none;stroke:#000000;stroke-width:0.71999997;stroke-linecap:square;stroke-linejoin:miter;stroke-miterlimit:10;stroke-opacity:1;stroke-dasharray:none"
       d="m 201.96,71.200082 -36,0" /><path
       inkscape:connector-curvature="0"
       id="path3469"
       style="fill:none;stroke:#000000;stroke-width:0.71999997;stroke-linecap:square;stroke-linejoin:miter;stroke-miterlimit:10;stroke-opacity:1;stroke-dasharray:none"
       d="m 129.96,123.76528 0,-23.886337" /><path
       inkscape:connector-curvature="0"
       id="path3471"
       style="fill:none;stroke:#000000;stroke-width:0.71999997;stroke-linecap:square;stroke-linejoin:miter;stroke-miterlimit:10;stroke-opacity:1;stroke-dasharray:none"
       d="m 178.11704,100.59731 -10.29639,5.21333" /><path
       inkscape:connector-curvature="0"
       id="path3473"
       style="fill:none;stroke:#000000;stroke-width:0.71999997;stroke-linecap:square;stroke-linejoin:miter;stroke-miterlimit:10;stroke-opacity:1;stroke-dasharray:none"
       d="m 167.82065,95.383972 10.29639,5.213338" /><path
       inkscape:connector-curvature="0"
       id="path3475"
       style="fill:none;stroke:#000000;stroke-width:0.71999997;stroke-linecap:square;stroke-linejoin:miter;stroke-miterlimit:10;stroke-opacity:1;stroke-dasharray:none"
       d="m 178.11704,90.17064 -10.29639,5.213332" /><path
       inkscape:connector-curvature="0"
       id="path3477"
       style="fill:none;stroke:#000000;stroke-width:0.71999997;stroke-linecap:square;stroke-linejoin:miter;stroke-miterlimit:10;stroke-opacity:1;stroke-dasharray:none"
       d="m 167.82065,84.957306 10.29639,5.213334" /><path
       inkscape:connector-curvature="0"
       id="path3479"
       style="fill:none;stroke:#000000;stroke-width:0.71999997;stroke-linecap:square;stroke-linejoin:miter;stroke-miterlimit:10;stroke-opacity:1;stroke-dasharray:none"
       d="m 178.11704,111.02398 -10.29639,-5.21334" /><path
       inkscape:connector-curvature="0"
       id="path3481"
       style="fill:none;stroke:#000000;stroke-width:0.71999997;stroke-linecap:square;stroke-linejoin:miter;stroke-miterlimit:10;stroke-opacity:1;stroke-dasharray:none"
       d="m 172.96885,113.63064 5.14819,-2.60666" /><path
       inkscape:connector-curvature="0"
       id="path3483"
       style="fill:none;stroke:#000000;stroke-width:0.71999997;stroke-linecap:square;stroke-linejoin:miter;stroke-miterlimit:10;stroke-opacity:1;stroke-dasharray:none"
       d="m 173.16,113.92 0,10.8" /><path
       inkscape:connector-curvature="0"
       id="path3485"
       style="fill:none;stroke:#000000;stroke-width:0.71999997;stroke-linecap:square;stroke-linejoin:miter;stroke-miterlimit:10;stroke-opacity:1;stroke-dasharray:none"
       d="m 173.16,82.143882 0,-10.9438" /><path
       inkscape:connector-curvature="0"
       id="path3487"
       style="fill:none;stroke:#000000;stroke-width:0.71999997;stroke-linecap:square;stroke-linejoin:miter;stroke-miterlimit:10;stroke-opacity:1;stroke-dasharray:none"
       d="m 172.96885,82.350639 -5.1482,2.658728" /><path
       inkscape:connector-curvature="0"
       id="path3489"
       style="fill:#000000;fill-opacity:1;fill-rule:nonzero;stroke:none"
       d="m 174.96,124.72 c 0,0.994 -0.806,1.8 -1.8,1.8 -0.994,0 -1.8,-0.806 -1.8,-1.8 0,-0.994 0.806,-1.8 1.8,-1.8 0.994,0 1.8,0.806 1.8,1.8" /><path
       inkscape:connector-curvature="0"
       id="path3491"
       style="fill:#000000;fill-opacity:1;fill-rule:nonzero;stroke:none"
       d="m 174.96,124.72 c 0,0.994 -0.806,1.8 -1.8,1.8 -0.994,0 -1.8,-0.806 -1.8,-1.8 0,-0.994 0.806,-1.8 1.8,-1.8 0.994,0 1.8,0.806 1.8,1.8" /><path
       inkscape:connector-curvature="0"
       id="path3493"
       style="fill:#000000;fill-opacity:1;fill-rule:nonzero;stroke:none"
       d="m 174.96,71.200082 c 0,0.9938 -0.806,1.8 -1.8,1.8 -0.994,0 -1.8,-0.8062 -1.8,-1.8 0,-0.9937 0.806,-1.8 1.8,-1.8 0.994,0 1.8,0.8063 1.8,1.8" /><path
       inkscape:connector-curvature="0"
       id="path3495"
       style="fill:#000000;fill-opacity:1;fill-rule:nonzero;stroke:none"
       d="m 174.96,71.200082 c 0,0.9938 -0.806,1.8 -1.8,1.8 -0.994,0 -1.8,-0.8062 -1.8,-1.8 0,-0.9937 0.806,-1.8 1.8,-1.8 0.994,0 1.8,0.8063 1.8,1.8" /><g
       id="g3497"
       transform="translate(-2.946,-18.374987)"><text
         id="text3499"
         transform="matrix(1,0,0,-1,185.346,112.775)"><tspan
           id="tspan3501"
           sodipodi:role="line"
           y="0"
           x="0"
           style="font-size:13px;font-variant:normal;font-weight:normal;writing-mode:lr-tb;fill:#000000;fill-opacity:1;fill-rule:nonzero;stroke:none;font-family:Helvetica;-inkscape-font-specification:Helvetica">$R_3 = \SI{10}{\kilo\ohm}$</tspan></text>
</g><path
       inkscape:connector-curvature="0"
       id="path3503"
       style="fill:none;stroke:#000000;stroke-width:0.71999997;stroke-linecap:square;stroke-linejoin:miter;stroke-miterlimit:10;stroke-opacity:1;stroke-dasharray:none"
       d="m 72.3602,85.600082 21.6,0" /><path
       inkscape:connector-curvature="0"
       id="path3505"
       style="fill:none;stroke:#000000;stroke-width:0.71999997;stroke-linecap:square;stroke-linejoin:miter;stroke-miterlimit:10;stroke-opacity:1;stroke-dasharray:none"
       d="M 62.482901,1.8336837 67.816234,12.377946" /><path
       inkscape:connector-curvature="0"
       id="path3507"
       style="fill:none;stroke:#000000;stroke-width:0.71999997;stroke-linecap:square;stroke-linejoin:miter;stroke-miterlimit:10;stroke-opacity:1;stroke-dasharray:none"
       d="M 57.149567,12.377946 62.482901,1.8336837" /><path
       inkscape:connector-curvature="0"
       id="path3509"
       style="fill:none;stroke:#000000;stroke-width:0.71999997;stroke-linecap:square;stroke-linejoin:miter;stroke-miterlimit:10;stroke-opacity:1;stroke-dasharray:none"
       d="M 51.816234,1.8336837 57.149567,12.377946" /><path
       inkscape:connector-curvature="0"
       id="path3511"
       style="fill:none;stroke:#000000;stroke-width:0.71999997;stroke-linecap:square;stroke-linejoin:miter;stroke-miterlimit:10;stroke-opacity:1;stroke-dasharray:none"
       d="M 46.482901,12.377946 51.816234,1.8336837" /><path
       inkscape:connector-curvature="0"
       id="path3513"
       style="fill:none;stroke:#000000;stroke-width:0.71999997;stroke-linecap:square;stroke-linejoin:miter;stroke-miterlimit:10;stroke-opacity:1;stroke-dasharray:none"
       d="M 73.149567,1.8336837 67.816234,12.377946" /><path
       inkscape:connector-curvature="0"
       id="path3515"
       style="fill:none;stroke:#000000;stroke-width:0.71999997;stroke-linecap:square;stroke-linejoin:miter;stroke-miterlimit:10;stroke-opacity:1;stroke-dasharray:none"
       d="M 75.816234,7.1058149 73.149567,1.8336837" /><path
       inkscape:connector-curvature="0"
       id="path3517"
       style="fill:none;stroke:#000000;stroke-width:0.71999997;stroke-linecap:square;stroke-linejoin:miter;stroke-miterlimit:10;stroke-opacity:1;stroke-dasharray:none"
       d="m 75.9602,7.2 10.8,0" /><path
       inkscape:connector-curvature="0"
       id="path3521"
       style="fill:none;stroke:#000000;stroke-width:0.71999997;stroke-linecap:square;stroke-linejoin:miter;stroke-miterlimit:10;stroke-opacity:1;stroke-dasharray:none"
       d="m 43.816234,7.1058149 2.719852,5.2721311" /><g
       id="g3523"
       transform="translate(5.2330203,-1.6000136)"><text
         id="text3525"
         transform="matrix(1,0,0,-1,36.3602,21.6)"><tspan
           id="tspan3527"
           sodipodi:role="line"
           y="0"
           x="0"
           style="font-size:13px;font-variant:normal;font-weight:normal;writing-mode:lr-tb;fill:#000000;fill-opacity:1;fill-rule:nonzero;stroke:none;font-family:Helvetica;-inkscape-font-specification:Helvetica">$R_1 = \SI{100}{\ohm}$</tspan></text>
</g><path
       inkscape:connector-curvature="0"
       id="path3529"
       style="fill:none;stroke:#000000;stroke-width:0.71999997;stroke-linecap:square;stroke-linejoin:miter;stroke-miterlimit:10;stroke-opacity:1;stroke-dasharray:none"
       d="m 136.72836,1.9830508 5.33333,10.5442622" /><path
       inkscape:connector-curvature="0"
       id="path3531"
       style="fill:none;stroke:#000000;stroke-width:0.71999997;stroke-linecap:square;stroke-linejoin:miter;stroke-miterlimit:10;stroke-opacity:1;stroke-dasharray:none"
       d="M 131.39502,12.527313 136.72836,1.9830508" /><path
       inkscape:connector-curvature="0"
       id="path3533"
       style="fill:none;stroke:#000000;stroke-width:0.71999997;stroke-linecap:square;stroke-linejoin:miter;stroke-miterlimit:10;stroke-opacity:1;stroke-dasharray:none"
       d="m 126.06169,1.9830508 5.33333,10.5442622" /><path
       inkscape:connector-curvature="0"
       id="path3535"
       style="fill:none;stroke:#000000;stroke-width:0.71999997;stroke-linecap:square;stroke-linejoin:miter;stroke-miterlimit:10;stroke-opacity:1;stroke-dasharray:none"
       d="M 120.72836,12.527313 126.06169,1.9830508" /><path
       inkscape:connector-curvature="0"
       id="path3537"
       style="fill:none;stroke:#000000;stroke-width:0.71999997;stroke-linecap:square;stroke-linejoin:miter;stroke-miterlimit:10;stroke-opacity:1;stroke-dasharray:none"
       d="M 147.39502,1.9830508 142.06169,12.527313" /><path
       inkscape:connector-curvature="0"
       id="path3539"
       style="fill:none;stroke:#000000;stroke-width:0.71999997;stroke-linecap:square;stroke-linejoin:miter;stroke-miterlimit:10;stroke-opacity:1;stroke-dasharray:none"
       d="M 150.06169,7.255182 147.39502,1.9830508" /><path
       inkscape:connector-curvature="0"
       id="path3541"
       style="fill:none;stroke:#000000;stroke-width:0.71999997;stroke-linecap:square;stroke-linejoin:miter;stroke-miterlimit:10;stroke-opacity:1;stroke-dasharray:none"
       d="m 150.30107,7.2 15.50219,0" /><path
       inkscape:connector-curvature="0"
       id="path3543"
       style="fill:none;stroke:#000000;stroke-width:0.72000003;stroke-linecap:square;stroke-linejoin:miter;stroke-miterlimit:10;stroke-opacity:1;stroke-dasharray:none"
       d="m 117.74887,7.2 -16.4091,0" /><path
       inkscape:connector-curvature="0"
       id="path3545"
       style="fill:none;stroke:#000000;stroke-width:0.71999997;stroke-linecap:square;stroke-linejoin:miter;stroke-miterlimit:10;stroke-opacity:1;stroke-dasharray:none"
       d="m 118.06169,7.255182 2.72,5.272131" /><g
       id="g3547"
       transform="translate(-17.96,-1.5999951)"><text
         id="text3549"
         transform="matrix(1,0,0,-1,129.96,21.6)"><tspan
           id="tspan3551"
           sodipodi:role="line"
           y="0"
           x="0"
           style="font-size:13px;font-variant:normal;font-weight:normal;writing-mode:lr-tb;fill:#000000;fill-opacity:1;fill-rule:nonzero;stroke:none;font-family:Helvetica;-inkscape-font-specification:Helvetica">$R_2 = \SI{100}{\kilo\ohm}$</tspan></text>
</g><path
       inkscape:connector-curvature="0"
       id="path3553"
       style="fill:none;stroke:#000000;stroke-width:0.71999997;stroke-linecap:square;stroke-linejoin:miter;stroke-miterlimit:10;stroke-opacity:1;stroke-dasharray:none"
       d="m 101.16,7.2 -14.3998,0" /><path
       inkscape:connector-curvature="0"
       id="path3555"
       style="fill:none;stroke:#000000;stroke-width:0.71999997;stroke-linecap:square;stroke-linejoin:miter;stroke-miterlimit:10;stroke-opacity:1;stroke-dasharray:none"
       d="m 173.16,79.2 0,-72" /><path
       inkscape:connector-curvature="0"
       id="path3557"
       style="fill:none;stroke:#000000;stroke-width:0.71999997;stroke-linecap:square;stroke-linejoin:miter;stroke-miterlimit:10;stroke-opacity:1;stroke-dasharray:none"
       d="m 173.16,7.2 -7.2,0" /><path
       inkscape:connector-curvature="0"
       id="path3559"
       style="fill:none;stroke:#000000;stroke-width:0.71999997;stroke-linecap:square;stroke-linejoin:miter;stroke-miterlimit:10;stroke-opacity:1;stroke-dasharray:none"
       d="m 93.9602,7.1487314 0,49.3970286" /><path
       inkscape:connector-curvature="0"
       id="path3561"
       style="fill:none;stroke:#000000;stroke-width:0.71999997;stroke-linecap:square;stroke-linejoin:miter;stroke-miterlimit:10;stroke-opacity:1;stroke-dasharray:none"
       d="m 28.730513,7.2 15.023834,0" /><path
       inkscape:connector-curvature="0"
       id="path3563"
       style="fill:#000000;fill-opacity:1;fill-rule:nonzero;stroke:none"
       d="m 127.8,40.239882 4.31992,0 0,4.31992 -4.31992,0 0,-4.31992 z" /><path
       inkscape:connector-curvature="0"
       id="path3571"
       style="fill:#000000;fill-opacity:1;fill-rule:nonzero;stroke:none"
       d="m 174.96,124.72 c 0,0.994 -0.806,1.8 -1.8,1.8 -0.994,0 -1.8,-0.806 -1.8,-1.8 0,-0.994 0.806,-1.8 1.8,-1.8 0.994,0 1.8,0.806 1.8,1.8" /><path
       inkscape:connector-curvature="0"
       id="path3573"
       style="fill:#000000;fill-opacity:1;fill-rule:nonzero;stroke:none"
       d="m 131.76,124.72 c 0,0.994 -0.806,1.8 -1.8,1.8 -0.994,0 -1.8,-0.806 -1.8,-1.8 0,-0.994 0.806,-1.8 1.8,-1.8 0.994,0 1.8,0.806 1.8,1.8" /><path
       inkscape:connector-curvature="0"
       id="path3577"
       style="fill:#000000;fill-opacity:1;fill-rule:nonzero;stroke:none"
       d="m 174.96,71.200082 c 0,0.9938 -0.806,1.8 -1.8,1.8 -0.994,0 -1.8,-0.8062 -1.8,-1.8 0,-0.9937 0.806,-1.8 1.8,-1.8 0.994,0 1.8,0.8063 1.8,1.8" /><path
       inkscape:connector-curvature="0"
       id="path3579"
       style="fill:#000000;fill-opacity:1;fill-rule:nonzero;stroke:none"
       d="m 174.96,71.200082 c 0,0.9938 -0.806,1.8 -1.8,1.8 -0.994,0 -1.8,-0.8062 -1.8,-1.8 0,-0.9937 0.806,-1.8 1.8,-1.8 0.994,0 1.8,0.8063 1.8,1.8" /><path
       inkscape:connector-curvature="0"
       id="path3581"
       style="fill:#000000;fill-opacity:1;fill-rule:nonzero;stroke:none"
       d="m 131.76,124.72 c 0,0.994 -0.806,1.8 -1.8,1.8 -0.994,0 -1.8,-0.806 -1.8,-1.8 0,-0.994 0.806,-1.8 1.8,-1.8 0.994,0 1.8,0.806 1.8,1.8" /><path
       inkscape:connector-curvature="0"
       id="path3583"
       style="fill:#000000;fill-opacity:1;fill-rule:nonzero;stroke:none"
       d="m 131.76,124.72 c 0,0.994 -0.806,1.8 -1.8,1.8 -0.994,0 -1.8,-0.806 -1.8,-1.8 0,-0.994 0.806,-1.8 1.8,-1.8 0.994,0 1.8,0.806 1.8,1.8" /><path
       inkscape:connector-curvature="0"
       id="path3585"
       style="fill:#000000;fill-opacity:1;fill-rule:nonzero;stroke:none"
       d="m 174.96,124.72 c 0,0.994 -0.806,1.8 -1.8,1.8 -0.994,0 -1.8,-0.806 -1.8,-1.8 0,-0.994 0.806,-1.8 1.8,-1.8 0.994,0 1.8,0.806 1.8,1.8" /><path
       inkscape:connector-curvature="0"
       id="path3587"
       style="fill:#000000;fill-opacity:1;fill-rule:nonzero;stroke:none"
       d="m 174.96,124.72 c 0,0.994 -0.806,1.8 -1.8,1.8 -0.994,0 -1.8,-0.806 -1.8,-1.8 0,-0.994 0.806,-1.8 1.8,-1.8 0.994,0 1.8,0.806 1.8,1.8" /><path
       inkscape:connector-curvature="0"
       id="path3589"
       style="fill:#000000;fill-opacity:1;fill-rule:nonzero;stroke:none"
       d="m 174.96,71.200082 c 0,0.9938 -0.806,1.8 -1.8,1.8 -0.994,0 -1.8,-0.8062 -1.8,-1.8 0,-0.9937 0.806,-1.8 1.8,-1.8 0.994,0 1.8,0.8063 1.8,1.8" /><path
       inkscape:connector-curvature="0"
       id="path3591"
       style="fill:#000000;fill-opacity:1;fill-rule:nonzero;stroke:none"
       d="m 174.96,71.200082 c 0,0.9938 -0.806,1.8 -1.8,1.8 -0.994,0 -1.8,-0.8062 -1.8,-1.8 0,-0.9937 0.806,-1.8 1.8,-1.8 0.994,0 1.8,0.8063 1.8,1.8" /><path
       inkscape:connector-curvature="0"
       id="path3593"
       style="fill:#000000;fill-opacity:1;fill-rule:nonzero;stroke:none"
       d="m 95.7602,7.2 c 0,0.99375 -0.8063,1.8 -1.8,1.8 -0.9938,0 -1.8,-0.80625 -1.8,-1.8 0,-0.99375 0.8062,-1.8 1.8,-1.8 0.9937,0 1.8,0.80625 1.8,1.8" /><path
       inkscape:connector-curvature="0"
       id="path3595"
       style="fill:#000000;fill-opacity:1;fill-rule:nonzero;stroke:none"
       d="m 174.96,71.200082 c 0,0.9938 -0.806,1.8 -1.8,1.8 -0.994,0 -1.8,-0.8062 -1.8,-1.8 0,-0.9937 0.806,-1.8 1.8,-1.8 0.994,0 1.8,0.8063 1.8,1.8" /><path
       inkscape:connector-curvature="0"
       id="path3597"
       style="fill:#000000;fill-opacity:1;fill-rule:nonzero;stroke:none"
       d="m 174.96,71.200082 c 0,0.9938 -0.806,1.8 -1.8,1.8 -0.994,0 -1.8,-0.8062 -1.8,-1.8 0,-0.9937 0.806,-1.8 1.8,-1.8 0.994,0 1.8,0.8063 1.8,1.8" /><path
       inkscape:connector-curvature="0"
       id="path3599"
       style="fill:#000000;fill-opacity:1;fill-rule:nonzero;stroke:none"
       d="m 95.7602,7.2 c 0,0.99375 -0.8063,1.8 -1.8,1.8 -0.9938,0 -1.8,-0.80625 -1.8,-1.8 0,-0.99375 0.8062,-1.8 1.8,-1.8 0.9937,0 1.8,0.80625 1.8,1.8" /><path
       inkscape:connector-curvature="0"
       id="path3601"
       style="fill:#000000;fill-opacity:1;fill-rule:nonzero;stroke:none"
       d="m 95.7602,7.2 c 0,0.99375 -0.8063,1.8 -1.8,1.8 -0.9938,0 -1.8,-0.80625 -1.8,-1.8 0,-0.99375 0.8062,-1.8 1.8,-1.8 0.9937,0 1.8,0.80625 1.8,1.8" /><path
       inkscape:connector-curvature="0"
       id="path56"
       style="fill:none;stroke:#000000;stroke-width:0.71999997;stroke-linecap:square;stroke-linejoin:miter;stroke-miterlimit:10;stroke-opacity:1;stroke-dasharray:none"
       d="m 151.36415,51.56046 -14.4,0" /><path
       inkscape:connector-curvature="0"
       id="path58"
       style="fill:none;stroke:#000000;stroke-width:0.71999997;stroke-linecap:square;stroke-linejoin:miter;stroke-miterlimit:10;stroke-opacity:1;stroke-dasharray:none"
       d="m 151.36415,53.0003 0,-1.43984" /><path
       inkscape:connector-curvature="0"
       id="path60"
       style="fill:none;stroke:#000000;stroke-width:0.71999997;stroke-linecap:square;stroke-linejoin:miter;stroke-miterlimit:10;stroke-opacity:1;stroke-dasharray:none"
       d="m 136.96415,53.0003 14.4,0" /><path
       inkscape:connector-curvature="0"
       id="path62"
       style="fill:none;stroke:#000000;stroke-width:0.71999997;stroke-linecap:square;stroke-linejoin:miter;stroke-miterlimit:10;stroke-opacity:1;stroke-dasharray:none"
       d="m 136.96415,51.56046 0,1.43984" /><path
       inkscape:connector-curvature="0"
       id="path64"
       style="fill:none;stroke:#000000;stroke-width:0.71999997;stroke-linecap:square;stroke-linejoin:miter;stroke-miterlimit:10;stroke-opacity:1;stroke-dasharray:none"
       d="m 144.16415,53.0003 0,12.96016" /><text
       xml:space="preserve"
       style="font-size:13px;font-style:normal;font-weight:normal;text-align:start;line-height:125%;letter-spacing:0px;word-spacing:0px;text-anchor:start;fill:#000000;fill-opacity:1;stroke:none;font-family:Sans"
       x="136"
       y="-38.400085"
       id="text3307"
       sodipodi:linespacing="125%"
       transform="scale(1,-1)"><tspan
         sodipodi:role="line"
         id="tspan3309"
         x="136"
         y="-38.400085">- 15 V</tspan></text>
<path
       inkscape:connector-curvature="0"
       id="path3587-5"
       style="fill:#000000;fill-opacity:1;fill-rule:nonzero;stroke:none"
       d="m 204.10158,71.119181 c 0,0.994 -0.806,1.8 -1.8,1.8 -0.994,0 -1.8,-0.806 -1.8,-1.8 0,-0.994 0.806,-1.8 1.8,-1.8 0.994,0 1.8,0.806 1.8,1.8" /><path
       inkscape:connector-curvature="0"
       id="path3587-2"
       style="fill:#000000;fill-opacity:1;fill-rule:nonzero;stroke:none"
       d="m 30.3584,7.2134799 c 0,0.994 -0.806,1.8 -1.8,1.8 -0.994,0 -1.8,-0.806 -1.8,-1.8 0,-0.994 0.806,-1.8 1.8,-1.8 0.994,0 1.8,0.806 1.8,1.8" /><text
       xml:space="preserve"
       style="font-size:13px;font-style:normal;font-weight:normal;text-align:start;line-height:125%;letter-spacing:0px;word-spacing:0px;text-anchor:start;fill:#000000;fill-opacity:1;stroke:none;font-family:Sans"
       x="24"
       y="-15.999987"
       id="text3311"
       sodipodi:linespacing="125%"
       transform="scale(1,-1)"><tspan
         sodipodi:role="line"
         id="tspan3313"
         x="24"
         y="-15.999987">$V\ped{in}$</tspan></text>
<text
       xml:space="preserve"
       style="font-size:13px;font-style:normal;font-weight:normal;text-align:start;line-height:125%;letter-spacing:0px;word-spacing:0px;text-anchor:start;fill:#000000;fill-opacity:1;stroke:none;font-family:Sans"
       x="196"
       y="-58.094929"
       id="text3311-2"
       sodipodi:linespacing="125%"
       transform="scale(1,-1)"><tspan
         sodipodi:role="line"
         id="tspan3313-4"
         x="196"
         y="-58.094929">$V\ped{out}$</tspan></text>
<path
       style="font-size:13px;font-style:normal;font-weight:normal;text-align:start;line-height:125%;letter-spacing:0px;word-spacing:0px;text-anchor:start;fill:#000000;fill-opacity:1;stroke:none;font-family:Sans"
       d="m 124.26977,74.863521 c -0.22155,-6e-6 -0.45447,-0.03371 -0.70588,-0.07353 -0.24893,-0.03983 -0.52257,-0.09682 -0.80883,-0.176471 l 0,-0.661764 c 0.28378,0.09459 0.54293,0.16107 0.77941,0.205882 0.23648,0.0448 0.46986,0.05881 0.67647,0.05882 0.37837,-6e-6 0.66602,-0.06626 0.86765,-0.220589 0.20412,-0.15185 0.30882,-0.375502 0.30882,-0.661764 0,-0.278805 -0.0975,-0.497704 -0.29411,-0.647059 -0.19666,-0.146871 -0.48205,-0.220593 -0.85294,-0.220588 l -0.69118,0 0,-0.617648 0.66176,0 c 0.41073,-4e-6 0.72687,-0.09272 0.95588,-0.279412 0.23151,-0.184206 0.35295,-0.436122 0.35295,-0.764706 0,-0.355966 -0.13343,-0.636832 -0.38236,-0.823529 -0.24644,-0.186696 -0.60057,-0.279412 -1.07352,-0.279412 -0.27134,0 -0.53049,0.04071 -0.77942,0.102942 -0.24892,0.06223 -0.48207,0.157435 -0.69118,0.279411 l 0,-0.735294 c 0.26387,-0.0921 0.51828,-0.161077 0.76471,-0.205882 0.24893,-0.0473 0.48659,-0.07353 0.72059,-0.07353 0.69699,0 1.23927,0.154678 1.61765,0.455882 0.37837,0.3012 0.57353,0.72928 0.57353,1.279412 0,0.358452 -0.10471,0.653106 -0.30882,0.897059 -0.20164,0.243948 -0.492,0.408122 -0.85295,0.485294 0.3261,0.08214 0.58796,0.229586 0.76471,0.441176 0.17674,0.214076 0.2647,0.470739 0.2647,0.779412 0,0.443087 -0.16644,0.799934 -0.49999,1.058823 -0.33357,0.261369 -0.79512,0.397054 -1.36765,0.397059 z m -12.36765,-0.102942 0,-5.573529 3.47059,0 0,0.632353 -2.72059,0 0,4.941176 -0.75,0 z m 4.25,0 0,-5.573529 0.7353,0 0,4.882353 1.44117,-3.82353 0.76471,0 1.42647,3.82353 0,-4.882353 0.73529,0 0,5.573529 -1.11765,0 -1.42647,-3.794117 -1.42647,3.794117 -1.13235,0 z m 12.89706,0 -1.32353,-0.279411 0,-0.676471 1.33823,0.264706 0,-4.25 -1.23529,0 0,-0.632353 3.20588,0 0,0.632353 -1.22059,0 0,4.941176 -0.7647,0 z m 4.86765,0 -1.32353,-0.279411 0,-0.676471 1.33823,0.264706 0,-4.25 -1.23529,0 0,-0.632353 3.20588,0 0,0.632353 -1.22059,0 0,4.941176 -0.76471,0 z"
       id="text3834"
       inkscape:connector-curvature="0" /></g></svg>